<svg xmlns="http://www.w3.org/2000/svg" width="1097.312" height="214.214" viewBox="0 0 1097.312 214.214"><g transform="translate(-956.024 -182.8)"><path d="M1174.4,184.027H1066.386a11.337,11.337,0,0,0-8.016,3.32l-99.026,99.026a11.327,11.327,0,0,0-3.32,8.016v77.925a11.336,11.336,0,0,0,2.8,7.465l10.245,11.708a11.336,11.336,0,0,0,8.533,3.872h131.047a11.346,11.346,0,0,0,8.017-3.32l47.366-47.367a11.337,11.337,0,0,0,3.32-8.016v-25.83a11.337,11.337,0,0,0-3.32-8.016l-2.752-2.752a11.346,11.346,0,0,0-8.016-3.32h-9.721a11.345,11.345,0,0,0-7.608,2.93l-42.832,38.754a11.34,11.34,0,0,1-7.606,2.93h-66.48a11.338,11.338,0,0,1-11.337-11.337v-9.8A11.327,11.327,0,0,1,1011,312.2l75.544-75.544a11.338,11.338,0,0,1,8.017-3.32h54.007a11.346,11.346,0,0,0,8.016-3.32l26.233-26.233a11.338,11.338,0,0,0,3.32-8.017h0a11.338,11.338,0,0,0-3.32-8.017l-.4-.4A11.346,11.346,0,0,0,1174.4,184.027Z" transform="translate(0 1.655)" fill="#fff"/><path d="M1100.426,186.379l-43.631,45.709a10.028,10.028,0,0,0-2.771,6.92v64.625a10.013,10.013,0,0,0,2.935,7.087h0a10.023,10.023,0,0,0,7.086,2.935h9.693a10.021,10.021,0,0,0,6.6-2.48l21.92-19.182a10.014,10.014,0,0,0,3.424-7.542v-17.13a10.015,10.015,0,0,1,2.935-7.087l46.963-46.963a10.025,10.025,0,0,0,2.935-7.087v-9.308a10.025,10.025,0,0,0-2.935-7.087l-4.055-4.055a10.02,10.02,0,0,0-7.216-2.935l-36.765.479A10.029,10.029,0,0,0,1100.426,186.379Z" transform="translate(132.117)" fill="#fff"/><path d="M1231.862,186.033l-174.927,177.2a10.109,10.109,0,0,0-2.912,7.1v11.579a10.106,10.106,0,0,0,1.7,5.6h0a10.105,10.105,0,0,0,8.409,4.5h37.37a10.1,10.1,0,0,0,7.143-2.959L1284.7,212.989a10.111,10.111,0,0,0,2.958-7.143v-11.59a10.111,10.111,0,0,0-2.958-7.143l-1.127-1.127a10.1,10.1,0,0,0-7.143-2.959h-37.382A10.108,10.108,0,0,0,1231.862,186.033Z" transform="translate(132.117 0.307)" fill="#fff"/><path d="M1287.738,186.052,1098.014,376.922a8.343,8.343,0,0,0-2.428,5.882h0a8.352,8.352,0,0,0,2.444,5.9l4.8,4.8a8.344,8.344,0,0,0,5.9,2.444h32.717a8.347,8.347,0,0,0,5.9-2.437l190.734-190.356a8.341,8.341,0,0,0,2.452-5.906v-4.724a8.346,8.346,0,0,0-2.445-5.9l-.547-.545a8.334,8.334,0,0,0-5.889-2.444l-37.981-.042A8.342,8.342,0,0,0,1287.738,186.052Z" transform="translate(188.149 1.067)" fill="#fff"/><path d="M1288.672,186.275,1167.135,308.75a9.006,9.006,0,0,0-2.611,6.34h0a9,9,0,0,0,2.635,6.363l3.827,3.827a9,9,0,0,0,6.364,2.637h153.293a9,9,0,0,0,6.366-2.637l52.4-52.4a9,9,0,0,0,2.637-6.363v-8.932a9,9,0,0,0-2.637-6.366l-9.966-9.965a9,9,0,0,0-6.366-2.637h-15.805a9,9,0,0,0-6.363,2.637l-34.926,34.929a9.01,9.01,0,0,1-6.366,2.635h-43.835a1.093,1.093,0,0,1-.772-1.867l73.53-73.529a9,9,0,0,0,2.637-6.363v-2.677a9,9,0,0,0-2.637-6.363l-1.663-1.665a9.007,9.007,0,0,0-6.34-2.635l-35.455-.1A9,9,0,0,0,1288.672,186.275Z" transform="translate(281.086 1.099)" fill="#fff"/><path d="M1164.179,255.363l-29.253,30.159a6.971,6.971,0,0,0-1.965,4.849v1.19a6.969,6.969,0,0,0,2.04,4.924l2.964,2.966a6.97,6.97,0,0,0,4.926,2.038h167.551a6.97,6.97,0,0,0,4.926-2.038l28.915-28.917a6.968,6.968,0,0,0,2.041-4.924V260.3a6.97,6.97,0,0,0-2.041-4.926h0a6.949,6.949,0,0,0-4.9-2.041c-20.88-.061-149.179-.411-170.308-.087A6.973,6.973,0,0,0,1164.179,255.363Z" transform="translate(238.535 94.79)" fill="#fff"/><path d="M1291.726,183.235h-38.021a9.272,9.272,0,0,0-6.556,2.717l-.39.39a9.278,9.278,0,0,0-2.714,6.556h0a9.278,9.278,0,0,0,2.714,6.556l58.349,58.349a9.272,9.272,0,0,0,13.112,0l18.766-18.766a9.27,9.27,0,0,0,.106-13l-38.707-39.975A9.269,9.269,0,0,0,1291.726,183.235Z" transform="translate(388.292 0.587)" fill="#fff"/><path d="M1236.246,393.188l-3.231-3.231a5.015,5.015,0,0,1-1.47-3.548h0a5.02,5.02,0,0,1,1.47-3.55l197.922-197.922a5.024,5.024,0,0,1,3.551-1.472h63.987a5.017,5.017,0,0,1,3.548,1.472l3.349,3.348v1.336l-84.228,84.228a5.02,5.02,0,0,1-3.55,1.47h-12.018a5.017,5.017,0,0,0-3.548,1.472l-26.445,26.442a5.021,5.021,0,0,0-1.47,3.55v6.636a5.021,5.021,0,0,1-1.47,3.55L1296.21,393.4a5.021,5.021,0,0,1-3.569,1.47l-52.866-.211A5.028,5.028,0,0,1,1236.246,393.188Z" transform="translate(371.44 0.896)" fill="#fff"/><path d="M1317.042,232.1l-15.688,15.69a6.894,6.894,0,0,0-2.022,4.879v4.116a6.889,6.889,0,0,0,2.022,4.879l11.449,11.452a6.9,6.9,0,0,0,4.879,2.022h41.827a6.9,6.9,0,0,0,6.9-6.9h0a6.9,6.9,0,0,0-2.022-4.879l-31.3-31.3a6.911,6.911,0,0,0-4.922-2.022l-6.293.04A6.9,6.9,0,0,0,1317.042,232.1Z" transform="translate(462.826 63.686)" fill="#fff"/><path d="M1427.52,185.621l-98.786,98.786a6.941,6.941,0,0,0-2.034,4.91h0a6.932,6.932,0,0,0,2.034,4.908l7.2,7.2a6.943,6.943,0,0,0,4.91,2.034h33.252a6.933,6.933,0,0,0,4.907-2.034l98.7-98.694a6.951,6.951,0,0,0,2.031-4.91v-6.413a6.941,6.941,0,0,0-2.031-4.908l-.867-.866a6.93,6.93,0,0,0-4.9-2.034l-39.5-.012A6.937,6.937,0,0,0,1427.52,185.621Z" transform="translate(499.721 1.063)" fill="#fff"/><path d="M1590.249,183.048h-6.124a4.055,4.055,0,0,0-2.867,1.188L1412.929,352.565a4.054,4.054,0,0,1-2.867,1.188h-84.916a4.06,4.06,0,0,0-2.87,1.188l-28.112,28.112a4.054,4.054,0,0,0-1.188,2.867v1.888a4.054,4.054,0,0,0,1.188,2.867l4.576,4.579a4.061,4.061,0,0,0,2.867,1.186h131.714a4.062,4.062,0,0,0,2.867-1.186l46.6-46.6a4.053,4.053,0,0,1,2.867-1.188h29.413a4.06,4.06,0,0,0,2.87-1.188l12.84-12.84a4.054,4.054,0,0,0,1.188-2.867V318.256a4.056,4.056,0,0,0-4.055-4.055h0a4.055,4.055,0,0,1-2.869-6.922l72.851-72.851a4.055,4.055,0,0,0,1.188-2.869V191.91a4.058,4.058,0,0,0-1.177-2.858l-4.776-4.807A4.047,4.047,0,0,0,1590.249,183.048Z" transform="translate(454.259 0.335)" fill="#fff"/><path d="M1462.792,218.558h-2.677a7.745,7.745,0,0,0-5.474,2.268l-28.3,28.3a7.735,7.735,0,0,0-2.268,5.474v36.5a7.738,7.738,0,0,1-2.266,5.474l-33.459,33.459a7.745,7.745,0,0,0-2.268,5.474V341a7.741,7.741,0,0,0,2.268,5.473h0a7.745,7.745,0,0,0,5.474,2.268h42.835a7.749,7.749,0,0,0,5.474-2.268l28.551-28.551a7.749,7.749,0,0,0,2.268-5.473V228.725a7.724,7.724,0,0,0-2.252-5.457l-2.421-2.433A7.742,7.742,0,0,0,1462.792,218.558Z" transform="translate(579.771 48.207)" fill="#fff"/></g></svg>