<svg xmlns="http://www.w3.org/2000/svg" width="474.312" height="91.227" viewBox="0 0 474.312 91.227"><defs><style>.a{fill:#fff;}</style></defs><g transform="translate(-956.024 -182.8)"><path class="a" d="M1049.024,184.027h-46a4.828,4.828,0,0,0-3.414,1.414l-42.172,42.172a4.824,4.824,0,0,0-1.414,3.414v33.186a4.828,4.828,0,0,0,1.194,3.179l4.363,4.986a4.828,4.828,0,0,0,3.634,1.649h55.809a4.832,4.832,0,0,0,3.414-1.414l20.172-20.172a4.828,4.828,0,0,0,1.414-3.414v-11a4.828,4.828,0,0,0-1.414-3.414l-1.172-1.172a4.832,4.832,0,0,0-3.414-1.414h-4.14a4.832,4.832,0,0,0-3.24,1.248l-18.241,16.5a4.829,4.829,0,0,1-3.239,1.248H982.852a4.829,4.829,0,0,1-4.828-4.828v-4.172a4.824,4.824,0,0,1,1.414-3.414l32.172-32.172a4.828,4.828,0,0,1,3.414-1.414h23a4.832,4.832,0,0,0,3.414-1.414l11.172-11.172a4.828,4.828,0,0,0,1.414-3.414h0a4.828,4.828,0,0,0-1.414-3.414l-.172-.172A4.832,4.832,0,0,0,1049.024,184.027Z"/><path class="a" d="M1073.785,184.324,1055.2,203.79a4.271,4.271,0,0,0-1.18,2.947v27.522a4.265,4.265,0,0,0,1.25,3.018h0a4.269,4.269,0,0,0,3.018,1.25h4.128a4.268,4.268,0,0,0,2.811-1.056l9.335-8.169a4.265,4.265,0,0,0,1.458-3.212v-7.295a4.265,4.265,0,0,1,1.25-3.018l20-20a4.269,4.269,0,0,0,1.25-3.018v-3.964a4.269,4.269,0,0,0-1.25-3.018l-1.727-1.727a4.267,4.267,0,0,0-3.073-1.25l-15.657.2A4.271,4.271,0,0,0,1073.785,184.324Z"/><path class="a" d="M1129.76,184.307l-74.5,75.463a4.305,4.305,0,0,0-1.24,3.023v4.931a4.3,4.3,0,0,0,.722,2.387h0a4.3,4.3,0,0,0,3.581,1.916h15.915a4.3,4.3,0,0,0,3.042-1.26l74.98-74.98a4.306,4.306,0,0,0,1.26-3.042v-4.936a4.306,4.306,0,0,0-1.26-3.042l-.48-.48a4.3,4.3,0,0,0-3.042-1.26h-15.92A4.3,4.3,0,0,0,1129.76,184.307Z"/><path class="a" d="M1177.418,184.639l-80.8,81.286a3.553,3.553,0,0,0-1.034,2.505h0a3.557,3.557,0,0,0,1.041,2.513l2.043,2.043a3.553,3.553,0,0,0,2.513,1.041h18.307a3.552,3.552,0,0,0,2.51-1.038l81.229-81.067a3.551,3.551,0,0,0,1.043-2.515V187.4a3.55,3.55,0,0,0-1.041-2.513l-.232-.232a3.553,3.553,0,0,0-2.509-1.041l-20.548-.018A3.552,3.552,0,0,0,1177.418,184.639Z"/><path class="a" d="M1224.4,184.748l-51.759,52.158a3.836,3.836,0,0,0-1.112,2.7h0a3.834,3.834,0,0,0,1.122,2.71l1.63,1.63a3.833,3.833,0,0,0,2.71,1.123h65.283a3.834,3.834,0,0,0,2.711-1.123l22.317-22.317a3.833,3.833,0,0,0,1.123-2.71v-3.8a3.834,3.834,0,0,0-1.123-2.711l-4.244-4.244a3.834,3.834,0,0,0-2.711-1.123h-6.731a3.833,3.833,0,0,0-2.71,1.123l-14.874,14.875a3.837,3.837,0,0,1-2.711,1.122h-18.668a.465.465,0,0,1-.329-.795l31.314-31.314a3.833,3.833,0,0,0,1.123-2.71V188.2a3.831,3.831,0,0,0-1.123-2.71l-.708-.709a3.836,3.836,0,0,0-2.7-1.122l-15.1-.042A3.831,3.831,0,0,0,1224.4,184.748Z"/><path class="a" d="M1153.256,254.07,1140.8,266.914a2.968,2.968,0,0,0-.837,2.065v.507a2.968,2.968,0,0,0,.869,2.1l1.262,1.263a2.968,2.968,0,0,0,2.1.868h71.355a2.968,2.968,0,0,0,2.1-.868l12.314-12.315a2.968,2.968,0,0,0,.869-2.1v-2.261a2.968,2.968,0,0,0-.869-2.1h0a2.959,2.959,0,0,0-2.088-.869c-8.892-.026-63.531-.175-72.529-.037A2.97,2.97,0,0,0,1153.256,254.07Z"/><path class="a" d="M1271.351,183.235h-16.192a3.948,3.948,0,0,0-2.792,1.157l-.166.166a3.951,3.951,0,0,0-1.156,2.792h0a3.951,3.951,0,0,0,1.156,2.792l24.849,24.849a3.948,3.948,0,0,0,5.584,0l7.992-7.992a3.948,3.948,0,0,0,.045-5.538l-16.484-17.024A3.947,3.947,0,0,0,1271.351,183.235Z"/><path class="a" d="M1240.547,272.779l-1.376-1.376a2.136,2.136,0,0,1-.626-1.511h0a2.138,2.138,0,0,1,.626-1.512l84.289-84.289a2.139,2.139,0,0,1,1.512-.627h27.25a2.137,2.137,0,0,1,1.511.627l1.426,1.426v.569l-35.87,35.87a2.138,2.138,0,0,1-1.512.626h-5.118a2.137,2.137,0,0,0-1.511.627l-11.262,11.261a2.138,2.138,0,0,0-.626,1.512v2.826a2.138,2.138,0,0,1-.626,1.512l-32.55,32.55a2.138,2.138,0,0,1-1.52.626l-22.514-.09A2.141,2.141,0,0,1,1240.547,272.779Z"/><path class="a" d="M1313.874,230.917l-6.681,6.682a2.936,2.936,0,0,0-.861,2.078v1.753a2.934,2.934,0,0,0,.861,2.078l4.876,4.877a2.94,2.94,0,0,0,2.078.861h17.813a2.939,2.939,0,0,0,2.939-2.939h0a2.938,2.938,0,0,0-.861-2.078L1320.71,230.9a2.943,2.943,0,0,0-2.1-.861l-2.68.017A2.939,2.939,0,0,0,1313.874,230.917Z"/><path class="a" d="M1376.636,184.454l-42.07,42.07a2.956,2.956,0,0,0-.866,2.091h0a2.952,2.952,0,0,0,.866,2.09l3.065,3.066a2.957,2.957,0,0,0,2.091.866h14.161a2.952,2.952,0,0,0,2.09-.866l42.032-42.031a2.96,2.96,0,0,0,.865-2.091v-2.731a2.956,2.956,0,0,0-.865-2.09l-.369-.369a2.951,2.951,0,0,0-2.087-.866l-16.823-.005A2.954,2.954,0,0,0,1376.636,184.454Z"/><path class="a" d="M1426.576,183.048h-2.608a1.727,1.727,0,0,0-1.221.506l-71.686,71.686a1.727,1.727,0,0,1-1.221.506h-36.163a1.729,1.729,0,0,0-1.222.506l-11.972,11.972a1.727,1.727,0,0,0-.506,1.221v.8a1.727,1.727,0,0,0,.506,1.221l1.949,1.95a1.73,1.73,0,0,0,1.221.5h56.093a1.73,1.73,0,0,0,1.221-.5l19.844-19.844a1.726,1.726,0,0,1,1.221-.506h12.526a1.729,1.729,0,0,0,1.222-.506l5.468-5.468a1.727,1.727,0,0,0,.506-1.221v-5.246a1.727,1.727,0,0,0-1.727-1.727h0a1.727,1.727,0,0,1-1.222-2.948l31.025-31.025a1.727,1.727,0,0,0,.506-1.222V186.822a1.728,1.728,0,0,0-.5-1.217l-2.034-2.047A1.724,1.724,0,0,0,1426.576,183.048Z"/><path class="a" d="M1425.748,218.558h-1.14a3.3,3.3,0,0,0-2.331.966l-12.053,12.053a3.294,3.294,0,0,0-.966,2.331v15.545a3.3,3.3,0,0,1-.965,2.331l-14.249,14.249a3.3,3.3,0,0,0-.966,2.331V270.7a3.3,3.3,0,0,0,.966,2.331h0a3.3,3.3,0,0,0,2.331.966h18.242a3.3,3.3,0,0,0,2.331-.966l12.159-12.159a3.3,3.3,0,0,0,.966-2.331V222.888a3.289,3.289,0,0,0-.959-2.324l-1.031-1.036A3.3,3.3,0,0,0,1425.748,218.558Z"/></g></svg>